<svg id="Capa_1" enable-background="new 0 0 512 512" height="512" viewBox="0 0 512 512" width="512" xmlns="http://www.w3.org/2000/svg"><g><g><path d="m245 100c-8.284 0-15 6.716-15 15v60c0 2.757-2.243 5-5 5h-25v-65c0-8.284-6.716-15-15-15s-15 6.716-15 15v45h-25c-2.757 0-5-2.243-5-5v-40c0-8.284-6.716-15-15-15s-15 6.716-15 15v40c0 19.299 15.701 35 35 35h25v262.368c0 8.284 6.716 15 15 15s15-6.716 15-15v-242.368h25c19.299 0 35-15.701 35-35v-60c0-8.284-6.716-15-15-15z" fill="#ab7b26"/><path d="m200 452.368v-242.368h25c19.299 0 35-15.701 35-35v-60c0-8.284-6.716-15-15-15s-15 6.716-15 15v60c0 2.757-2.243 5-5 5h-25v-65c0-8.284-6.716-15-15-15v367.368c8.284 0 15-6.716 15-15z" fill="#825d1d"/><path d="m285 130h-200c-8.284 0-15-6.716-15-15 0-19.546 11.266-36.954 27.962-45.544-.459-2.974-.689-5.977-.689-9.001-.001-33.335 27.12-60.455 60.455-60.455 17.843 0 34.621 8.058 45.952 21.379 5.623-2.111 11.575-3.197 17.684-3.197 28.322 0 51.364 23.042 51.364 51.364v.125c16.378 8.758 27.272 26.092 27.272 45.329 0 8.284-6.716 15-15 15z" fill="#b2fa09"/><g><path d="m272.728 69.67c0-.042 0-.083 0-.125 0-28.322-23.042-51.364-51.364-51.364-6.108 0-12.061 1.086-17.684 3.197-5.213-6.128-11.588-11.125-18.68-14.753v123.375h100c8.284 0 15-6.716 15-15 0-19.237-10.894-36.571-27.272-45.33z" fill="#70da40"/></g></g><g><path d="m457 232c-8.284 0-15 6.716-15 15v60c0 2.757-2.243 5-5 5h-25v-65c0-8.284-6.716-15-15-15s-15 6.716-15 15v45h-25c-2.757 0-5-2.243-5-5v-40c0-8.284-6.716-15-15-15s-15 6.716-15 15v40c0 19.299 15.701 35 35 35h25v125c0 8.284 6.716 15 15 15s15-6.716 15-15v-105h25c19.299 0 35-15.701 35-35v-60c0-8.284-6.716-15-15-15z" fill="#ab7b26"/><path d="m412 447v-105h25c19.299 0 35-15.701 35-35v-60c0-8.284-6.716-15-15-15s-15 6.716-15 15v60c0 2.757-2.243 5-5 5h-25v-65c0-8.284-6.716-15-15-15v230c8.284 0 15-6.716 15-15z" fill="#825d1d"/><path d="m497 262h-200c-8.284 0-15-6.716-15-15 0-19.546 11.266-36.954 27.962-45.544-.459-2.974-.689-5.977-.689-9.001 0-33.335 27.12-60.455 60.455-60.455 17.843 0 34.621 8.058 45.952 21.379 5.623-2.111 11.575-3.197 17.684-3.197 28.322 0 51.364 23.042 51.364 51.364v.125c16.378 8.758 27.272 26.092 27.272 45.329 0 8.284-6.716 15-15 15z" fill="#b2fa09"/><g><path d="m484.728 201.67c0-.042 0-.083 0-.125 0-28.322-23.042-51.364-51.364-51.364-6.108 0-12.061 1.086-17.684 3.197-5.213-6.128-11.588-11.125-18.68-14.753v123.375h100c8.284 0 15-6.716 15-15 0-19.237-10.894-36.571-27.272-45.33z" fill="#70da40"/></g></g><path d="m115 322c-8.284 0-15 6.716-15 15v45h-25c-2.757 0-5-2.243-5-5v-40c0-8.284-6.716-15-15-15s-15 6.716-15 15v40c0 19.299 15.701 35 35 35h25v85c0 8.284 6.716 15 15 15s15-6.716 15-15v-160c0-8.284-6.716-15-15-15z" fill="#ab7b26"/><g><path d="m115 322v190c8.284 0 15-6.716 15-15v-160c0-8.284-6.716-15-15-15z" fill="#825d1d"/></g><path d="m457 110c-30.327 0-55-24.673-55-55s24.673-55 55-55 55 24.673 55 55-24.673 55-55 55z" fill="#fff04a"/><path d="m215 352h-200c-8.284 0-15-6.716-15-15 0-19.546 11.266-36.954 27.962-45.544-.459-2.974-.689-5.977-.689-9.001 0-33.335 27.12-60.455 60.455-60.455 17.843 0 34.621 8.058 45.952 21.379 5.623-2.111 11.575-3.197 17.684-3.197 28.322 0 51.364 23.042 51.364 51.364v.125c16.378 8.758 27.272 26.092 27.272 45.329 0 8.284-6.716 15-15 15z" fill="#b2fa09"/><g><path d="m202.728 291.67c0-.042 0-.083 0-.125 0-28.322-23.042-51.364-51.364-51.364-6.108 0-12.061 1.086-17.684 3.197-5.213-6.128-11.588-11.125-18.68-14.753v123.375h100c8.284 0 15-6.716 15-15 0-19.237-10.894-36.571-27.272-45.33z" fill="#70da40"/></g><g><path d="m454.029 451.451c1.209-7.848.834-15.869-1.153-23.758-5.926-23.521-25.919-41.628-49.751-45.056-21.153-3.042-41.624 5.049-54.851 20.725-5.609-2.1-11.546-3.181-17.638-3.181-16.9 0-32.48 8.312-41.979 21.818h-63.657c-41.355 0-75 33.645-75 75h332c0-19.548-11.271-36.959-27.971-45.548z" fill="#70da40"/></g><path d="m454.029 451.451c1.209-7.848.834-15.869-1.153-23.758-5.926-23.521-25.919-41.628-49.751-45.056-21.153-3.042-41.624 5.049-54.851 20.725-5.609-2.1-11.546-3.181-17.638-3.181-16.9 0-32.48 8.312-41.979 21.818h-32.657v75h226c0-19.548-11.271-36.959-27.971-45.548z" fill="#00a763"/><path d="m497 512h-482c-8.284 0-15-6.716-15-15s6.716-15 15-15h482c8.284 0 15 6.716 15 15s-6.716 15-15 15z" fill="#b2fa09"/><path d="m497 482h-241v30h241c8.284 0 15-6.716 15-15s-6.716-15-15-15z" fill="#70da40"/><path d="m457 0v110c30.327 0 55-24.673 55-55s-24.673-55-55-55z" fill="#ffda44"/></g></svg>